<?xml version="1.0" encoding="utf-8"?>
<svg xmlns="http://www.w3.org/2000/svg" xmlns:xlink="http://www.w3.org/1999/xlink" width="1408"
    height="768" viewBox="0 0 1408 768" xmlns:c2pa="http://c2pa.org/manifest">
    <metadata>
        <c2pa:manifest>
            AAAk4Wp1bWIAAAAeanVtZGMycGEAEQAQgAAAqgA4m3EDYzJwYQAAAA6CanVtYgAAAEdqdW1kYzJtYQARABCAAACqADibcQN1cm46YzJwYTozMDFkMmNmNC1kNmY2LTRiNTctOTIyNC1kZTIxYWI0ODYwMDkAAAADs2p1bWIAAAApanVtZGMyYXMAEQAQgAAAqgA4m3EDYzJwYS5hc3NlcnRpb25zAAAAAMlqdW1iAAAARGp1bWRjYm9yABEAEIAAAKoAOJtxE2MycGEuaW5ncmVkaWVudC52MwAAAAAYYzJzaMmccvctUqdmcSHBraqZlUgAAAB9Y2JvcqRscmVsYXRpb25zaGlwaHBhcmVudE9maGRjOnRpdGxlZnNvdXJjZWlkYzpmb3JtYXRqaW1hZ2Uvd2VicGppbnN0YW5jZUlEeCx4bXA6aWlkOmY5NjRkOTBlLTAxODktNGIyYi05NWQyLTIzYTg1MTE3ZWFkMgAAAfVqdW1iAAAAQWp1bWRjYm9yABEAEIAAAKoAOJtxE2MycGEuYWN0aW9ucy52MgAAAAAYYzJzaIXfUGekdTWb5Qzw+2q2T10AAAGsY2JvcqFnYWN0aW9uc4KiZmFjdGlvbmtjMnBhLm9wZW5lZGpwYXJhbWV0ZXJzoWtpbmdyZWRpZW50c4GiY3VybHgtc2VsZiNqdW1iZj1jMnBhLmFzc2VydGlvbnMvYzJwYS5pbmdyZWRpZW50LnYzZGhhc2hYIObVstJfI8fp9AgxB5umVFg7DWOljSqfvg/YXx+1SWlWpGZhY3Rpb25rYzJwYS5lZGl0ZWRqcGFyYW1ldGVyc6FraW5ncmVkaWVudHOBomN1cmx4LXNlbGYjanVtYmY9YzJwYS5hc3NlcnRpb25zL2MycGEuaW5ncmVkaWVudC52M2RoYXNoWCDm1bLSXyPH6fQIMQebplRYOw1jpY0qn74P2F8ftUlpVnFkaWdpdGFsU291cmNlVHlwZXhTaHR0cDovL2N2LmlwdGMub3JnL25ld3Njb2Rlcy9kaWdpdGFsc291cmNldHlwZS9jb21wb3NpdGVXaXRoVHJhaW5lZEFsZ29yaXRobWljTWVkaWFrZGVzY3JpcHRpb252Q3JlYXRlZCBieSBSZWNyYWZ0IEFJLgAAAMRqdW1iAAAAQGp1bWRjYm9yABEAEIAAAKoAOJtxE2MycGEuaGFzaC5kYXRhAAAAABhjMnNohwinzccZeM/CDDaT9HRlCgAAAHxjYm9ypWpleGNsdXNpb25zgaJlc3RhcnQY2mZsZW5ndGgZE4xkbmFtZW5qdW1iZiBtYW5pZmVzdGNhbGdmc2hhMjU2ZGhhc2hYIPL1eVLcLZvu3Xb79+MR+Cdlv77GwadpqwaNn0o/FJI5Y3BhZEkAAAAAAAAAAAAAAAKkanVtYgAAACdqdW1kYzJjbAARABCAAACqADibcQNjMnBhLmNsYWltLnYyAAAAAnVjYm9yp2ppbnN0YW5jZUlEeCx4bXA6aWlkOmJhMjY1YzdhLTkyZTItNDhhOS05MGJkLTk0ZGEyOTFiNWVjZnRjbGFpbV9nZW5lcmF0b3JfaW5mb6NkbmFtZWpyZWNyYWZ0LmFpZ3ZlcnNpb254KDgxY2U4MmUyYzVjM2NiZmJlOGM2ZmJlMTc5ZDVmOGQ5MWM0MDljZTF3b3JnLmNvbnRlbnRhdXRoLmMycGFfcnNmMC45MC43aXNpZ25hdHVyZXhNc2VsZiNqdW1iZj0vYzJwYS91cm46YzJwYTozMDFkMmNmNC1kNmY2LTRiNTctOTIyNC1kZTIxYWI0ODYwMDkvYzJwYS5zaWduYXR1cmVyY3JlYXRlZF9hc3NlcnRpb25zgqJjdXJseCpzZWxmI2p1bWJmPWMycGEuYXNzZXJ0aW9ucy9jMnBhLmFjdGlvbnMudjJkaGFzaFggQXF8+G4WHtD3MskmPlB0+DkZnp1u1xwtM/l54SokFgWiY3VybHgpc2VsZiNqdW1iZj1jMnBhLmFzc2VydGlvbnMvYzJwYS5oYXNoLmRhdGFkaGFzaFgg7haWxTw3Pj7F1o1yqGWbrfB66Q9h3estO7hUj13apt9zZ2F0aGVyZWRfYXNzZXJ0aW9uc4GiY3VybHgtc2VsZiNqdW1iZj1jMnBhLmFzc2VydGlvbnMvYzJwYS5pbmdyZWRpZW50LnYzZGhhc2hYIObVstJfI8fp9AgxB5umVFg7DWOljSqfvg/YXx+1SWlWaGRjOnRpdGxleBpSZWNyYWZ0IEFJIEdlbmVyYXRlZCBJbWFnZWNhbGdmc2hhMjU2AAAH3Gp1bWIAAAAoanVtZGMyY3MAEQAQgAAAqgA4m3EDYzJwYS5zaWduYXR1cmUAAAAHrGNib3LShFkDsKIBJhghglkB5zCCAeMwggGJoAMCAQICCQC33lpjQ1FuejAKBggqhkjOPQQDAjBAMR8wHQYDVQQDDBZSZWNyYWZ0IFN0YWdpbmcgRGV2IENBMRAwDgYDVQQKDAdSZWNyYWZ0MQswCQYDVQQGEwJVUzAeFw0yNjA2MTIxOTQzNTBaFw0yNzA2MTIxOTQzNTBaMDcxCzAJBgNVBAYTAlVTMRMwEQYDVQQKEwpSZWNyYWZ0IEFJMRMwEQYDVQQDEwpyZWNyYWZ0LmFpMFkwEwYHKoZIzj0CAQYIKoZIzj0DAQcDQgAESmk1WwArIPw3hty3jsWHSA/1QOhBRu9xOjpJ2/iiIghScoEVM+Lnjds/7dqmG+giFL0vEb4DoogpX6KrGLcPNaN1MHMwDAYDVR0TAQH/BAIwADAOBgNVHQ8BAf8EBAMCBsAwEwYDVR0lBAwwCgYIKwYBBQUHAwQwHQYDVR0OBBYEFC8x6QXp/eki9cuCDx2vDJDLIV39MB8GA1UdIwQYMBaAFAILKjgayqqXSv/5v5MWaO2UeHm3MAoGCCqGSM49BAMCA0gAMEUCIFPISltGl775PEkIFRTZGsevWJvWnvBrE9kWU0MPgedQAiEAtA+AZBKEQ+DdK9mUZDctB2Wlt1iAsv0GRjfeYpReMsxZAb0wggG5MIIBX6ADAgECAgkAnPloO0+gE28wCgYIKoZIzj0EAwIwQDEfMB0GA1UEAwwWUmVjcmFmdCBTdGFnaW5nIERldiBDQTEQMA4GA1UECgwHUmVjcmFmdDELMAkGA1UEBhMCVVMwHhcNMjYwNjEyMTk0MDE2WhcNMjgwNjExMTk0MDE2WjBAMR8wHQYDVQQDDBZSZWNyYWZ0IFN0YWdpbmcgRGV2IENBMRAwDgYDVQQKDAdSZWNyYWZ0MQswCQYDVQQGEwJVUzBZMBMGByqGSM49AgEGCCqGSM49AwEHA0IABEPSEAZXFWymij2K0EnzoS/9NLO8VAwu0YpyLizvyNZPfcvcoeqFhfZD8Wj/rcdb9T3ji98q1arie99B9GRog8qjQjBAMA8GA1UdEwEB/wQFMAMBAf8wDgYDVR0PAQH/BAQDAgGGMB0GA1UdDgQWBBQCCyo4Gsqql0r/+b+TFmjtlHh5tzAKBggqhkjOPQQDAgNIADBFAiBUMDSJi5WA3kIY4BfmYqk24HLs0qpjicN0NpUP4bvNxQIhAPTvHC5v8X6FS6geI7XW7h84t1i/qdkTfg0RpMKWLMFboWNwYWRZA6QAAAAAAAAAAAAAAAAAAAAAAAAAAAAAAAAAAAAAAAAAAAAAAAAAAAAAAAAAAAAAAAAAAAAAAAAAAAAAAAAAAAAAAAAAAAAAAAAAAAAAAAAAAAAAAAAAAAAAAAAAAAAAAAAAAAAAAAAAAAAAAAAAAAAAAAAAAAAAAAAAAAAAAAAAAAAAAAAAAAAAAAAAAAAAAAAAAAAAAAAAAAAAAAAAAAAAAAAAAAAAAAAAAAAAAAAAAAAAAAAAAAAAAAAAAAAAAAAAAAAAAAAAAAAAAAAAAAAAAAAAAAAAAAAAAAAAAAAAAAAAAAAAAAAAAAAAAAAAAAAAAAAAAAAAAAAAAAAAAAAAAAAAAAAAAAAAAAAAAAAAAAAAAAAAAAAAAAAAAAAAAAAAAAAAAAAAAAAAAAAAAAAAAAAAAAAAAAAAAAAAAAAAAAAAAAAAAAAAAAAAAAAAAAAAAAAAAAAAAAAAAAAAAAAAAAAAAAAAAAAAAAAAAAAAAAAAAAAAAAAAAAAAAAAAAAAAAAAAAAAAAAAAAAAAAAAAAAAAAAAAAAAAAAAAAAAAAAAAAAAAAAAAAAAAAAAAAAAAAAAAAAAAAAAAAAAAAAAAAAAAAAAAAAAAAAAAAAAAAAAAAAAAAAAAAAAAAAAAAAAAAAAAAAAAAAAAAAAAAAAAAAAAAAAAAAAAAAAAAAAAAAAAAAAAAAAAAAAAAAAAAAAAAAAAAAAAAAAAAAAAAAAAAAAAAAAAAAAAAAAAAAAAAAAAAAAAAAAAAAAAAAAAAAAAAAAAAAAAAAAAAAAAAAAAAAAAAAAAAAAAAAAAAAAAAAAAAAAAAAAAAAAAAAAAAAAAAAAAAAAAAAAAAAAAAAAAAAAAAAAAAAAAAAAAAAAAAAAAAAAAAAAAAAAAAAAAAAAAAAAAAAAAAAAAAAAAAAAAAAAAAAAAAAAAAAAAAAAAAAAAAAAAAAAAAAAAAAAAAAAAAAAAAAAAAAAAAAAAAAAAAAAAAAAAAAAAAAAAAAAAAAAAAAAAAAAAAAAAAAAAAAAAAAAAAAAAAAAAAAAAAAAAAAAAAAAAAAAAAAAAAAAAAAAAAAAAAAAAAAAAAAAAAAAAAAAAAAAAAAAAAAAAAAAAAAAAAAAAAAAAAAAAAAAAAAAAAAAAAAAAAAAAAAAAAAAAAAAAAAAAAAAAAAAAAAAAAAAAAAAAAAAAAAAAAAAAAAAAAAAAAAAAAAAAAAAAAAAAAAAAAAAAAAAAAAAAAAAAAAAAAPZYQEqCu5bo+ce86Io+/GJb019HxtNpkOLjbSep5FmBZnxP9lr7JENWOCzh/BWHMAClt2kv7YTXto0pHR6fQ0CRe50AABY5anVtYgAAAEdqdW1kYzJtYQARABCAAACqADibcQN1cm46YzJwYTpmNmQ3MzM5YS1mMTM2LTQxZDItODA2Mi1kMGM5YmJkYzc2ZmQAAAALeGp1bWIAAAApanVtZGMyYXMAEQAQgAAAqgA4m3EDYzJwYS5hc3NlcnRpb25zAAAACJVqdW1iAAAARGp1bWRjYm9yABEAEIAAAKoAOJtxE2MycGEuaW5ncmVkaWVudC52MwAAAAAYYzJzaINB7OdCNqbNeZ6wWMk69E0AAAhJY2JvcqdscmVsYXRpb25zaGlwaHBhcmVudE9maGRjOnRpdGxlZnNvdXJjZWlkYzpmb3JtYXRtaW1hZ2Uvc3ZnK3htbHF2YWxpZGF0aW9uUmVzdWx0c6JuYWN0aXZlTWFuaWZlc3SjZ3N1Y2Nlc3OGo2Rjb2RleB1jbGFpbVNpZ25hdHVyZS5pbnNpZGVWYWxpZGl0eWN1cmx4TXNlbGYjanVtYmY9L2MycGEvdXJuOmMycGE6MzAxZDJjZjQtZDZmNi00YjU3LTkyMjQtZGUyMWFiNDg2MDA5L2MycGEuc2lnbmF0dXJla2V4cGxhbmF0aW9udWNsYWltIHNpZ25hdHVyZSB2YWxpZKNkY29kZXgYY2xhaW1TaWduYXR1cmUudmFsaWRhdGVkY3VybHhNc2VsZiNqdW1iZj0vYzJwYS91cm46YzJwYTozMDFkMmNmNC1kNmY2LTRiNTctOTIyNC1kZTIxYWI0ODYwMDkvYzJwYS5zaWduYXR1cmVrZXhwbGFuYXRpb251Y2xhaW0gc2lnbmF0dXJlIHZhbGlko2Rjb2RleBlhc3NlcnRpb24uaGFzaGVkVVJJLm1hdGNoY3VybHhec2VsZiNqdW1iZj0vYzJwYS91cm46YzJwYTozMDFkMmNmNC1kNmY2LTRiNTctOTIyNC1kZTIxYWI0ODYwMDkvYzJwYS5hc3NlcnRpb25zL2MycGEuYWN0aW9ucy52MmtleHBsYW5hdGlvbng+aGFzaGVkIHVyaSBtYXRjaGVkOiBzZWxmI2p1bWJmPWMycGEuYXNzZXJ0aW9ucy9jMnBhLmFjdGlvbnMudjKjZGNvZGV4GWFzc2VydGlvbi5oYXNoZWRVUkkubWF0Y2hjdXJseF1zZWxmI2p1bWJmPS9jMnBhL3VybjpjMnBhOjMwMWQyY2Y0LWQ2ZjYtNGI1Ny05MjI0LWRlMjFhYjQ4NjAwOS9jMnBhLmFzc2VydGlvbnMvYzJwYS5oYXNoLmRhdGFrZXhwbGFuYXRpb254PWhhc2hlZCB1cmkgbWF0Y2hlZDogc2VsZiNqdW1iZj1jMnBhLmFzc2VydGlvbnMvYzJwYS5oYXNoLmRhdGGjZGNvZGV4GWFzc2VydGlvbi5oYXNoZWRVUkkubWF0Y2hjdXJseGFzZWxmI2p1bWJmPS9jMnBhL3VybjpjMnBhOjMwMWQyY2Y0LWQ2ZjYtNGI1Ny05MjI0LWRlMjFhYjQ4NjAwOS9jMnBhLmFzc2VydGlvbnMvYzJwYS5pbmdyZWRpZW50LnYza2V4cGxhbmF0aW9ueEFoYXNoZWQgdXJpIG1hdGNoZWQ6IHNlbGYjanVtYmY9YzJwYS5hc3NlcnRpb25zL2MycGEuaW5ncmVkaWVudC52M6NkY29kZXgYYXNzZXJ0aW9uLmRhdGFIYXNoLm1hdGNoY3VybHhdc2VsZiNqdW1iZj0vYzJwYS91cm46YzJwYTozMDFkMmNmNC1kNmY2LTRiNTctOTIyNC1kZTIxYWI0ODYwMDkvYzJwYS5hc3NlcnRpb25zL2MycGEuaGFzaC5kYXRha2V4cGxhbmF0aW9ub2RhdGEgaGFzaCB2YWxpZG1pbmZvcm1hdGlvbmFsgGdmYWlsdXJlgaNkY29kZXgbc2lnbmluZ0NyZWRlbnRpYWwudW50cnVzdGVkY3VybHhNc2VsZiNqdW1iZj0vYzJwYS91cm46YzJwYTozMDFkMmNmNC1kNmY2LTRiNTctOTIyNC1kZTIxYWI0ODYwMDkvYzJwYS5zaWduYXR1cmVrZXhwbGFuYXRpb254HXNpZ25pbmcgY2VydGlmaWNhdGUgdW50cnVzdGVkcGluZ3JlZGllbnREZWx0YXOBonZpbmdyZWRpZW50QXNzZXJ0aW9uVVJJeGFzZWxmI2p1bWJmPS9jMnBhL3VybjpjMnBhOjMwMWQyY2Y0LWQ2ZjYtNGI1Ny05MjI0LWRlMjFhYjQ4NjAwOS9jMnBhLmFzc2VydGlvbnMvYzJwYS5pbmdyZWRpZW50LnYzcHZhbGlkYXRpb25EZWx0YXOjZ3N1Y2Nlc3OAbWluZm9ybWF0aW9uYWyBo2Rjb2RleBxpbmdyZWRpZW50LnVua25vd25Qcm92ZW5hbmNlY3VybHhhc2VsZiNqdW1iZj0vYzJwYS91cm46YzJwYTozMDFkMmNmNC1kNmY2LTRiNTctOTIyNC1kZTIxYWI0ODYwMDkvYzJwYS5hc3NlcnRpb25zL2MycGEuaW5ncmVkaWVudC52M2tleHBsYW5hdGlvbngrc291cmNlOiBpbmdyZWRpZW50IGRvZXMgbm90IGhhdmUgcHJvdmVuYW5jZWdmYWlsdXJlgGppbnN0YW5jZUlEeCx4bXA6aWlkOmVmYTA4NjU4LWNkZTgtNGU4Yy1hZjgzLWYxZTlkM2M5M2ExOW5hY3RpdmVNYW5pZmVzdKNjdXJseD5zZWxmI2p1bWJmPS9jMnBhL3VybjpjMnBhOjMwMWQyY2Y0LWQ2ZjYtNGI1Ny05MjI0LWRlMjFhYjQ4NjAwOWNhbGdmc2hhMjU2ZGhhc2hYICzjeB+lhrZ00M9wO6TDrNfX7xI3GHW2alk5e+hC67A0bmNsYWltU2lnbmF0dXJlo2N1cmx4TXNlbGYjanVtYmY9L2MycGEvdXJuOmMycGE6MzAxZDJjZjQtZDZmNi00YjU3LTkyMjQtZGUyMWFiNDg2MDA5L2MycGEuc2lnbmF0dXJlY2FsZ2ZzaGEyNTZkaGFzaFgggfiMv3ZIy0sGhrtU/7xAS/CKmu6UpjefnnRW7Rr7s1MAAAHuanVtYgAAAEFqdW1kY2JvcgARABCAAACqADibcRNjMnBhLmFjdGlvbnMudjIAAAAAGGMyc2iAAcSKWdPpALXm/Kvb62S2AAABpWNib3KhZ2FjdGlvbnOComZhY3Rpb25rYzJwYS5vcGVuZWRqcGFyYW1ldGVyc6FraW5ncmVkaWVudHOBomN1cmx4LXNlbGYjanVtYmY9YzJwYS5hc3NlcnRpb25zL2MycGEuaW5ncmVkaWVudC52M2RoYXNoWCDN8/Nh3Qj01RZ5u7qscRDvOy8ysw8ei0FiX4dJrD24waRmYWN0aW9ubGMycGEuY3JlYXRlZGpwYXJhbWV0ZXJzoWtpbmdyZWRpZW50c4GiY3VybHgtc2VsZiNqdW1iZj1jMnBhLmFzc2VydGlvbnMvYzJwYS5pbmdyZWRpZW50LnYzZGhhc2hYIM3z82HdCPTVFnm7uqxxEO87LzKzDx6LQWJfh0msPbjBcWRpZ2l0YWxTb3VyY2VUeXBleEFodHRwOi8vY3YuaXB0Yy5vcmcvbmV3c2NvZGVzL2RpZ2l0YWxzb3VyY2V0eXBlL2NvbXBvc2l0ZVN5bnRoZXRpY2tkZXNjcmlwdGlvbngfQ29tcG9zZWQgaW4gdGhlIFJlY3JhZnQgZWRpdG9yLgAAAMRqdW1iAAAAQGp1bWRjYm9yABEAEIAAAKoAOJtxE2MycGEuaGFzaC5kYXRhAAAAABhjMnNoHFmqk+MTs5iqiV2JZ/EbqQAAAHxjYm9ypWpleGNsdXNpb25zgaJlc3RhcnQY6mZsZW5ndGgZMSxkbmFtZW5qdW1iZiBtYW5pZmVzdGNhbGdmc2hhMjU2ZGhhc2hYIFVXHJ+q0/wYUbiFywki6mgbmbaSXeH9/NoQv/Voaq/tY3BhZEkAAAAAAAAAAAAAAAKWanVtYgAAACdqdW1kYzJjbAARABCAAACqADibcQNjMnBhLmNsYWltLnYyAAAAAmdjYm9yp2ppbnN0YW5jZUlEeCx4bXA6aWlkOmQ4MmExYzQ5LTg2MGYtNGVmNy1iMDY2LWE5NjkwY2FhOTYwZHRjbGFpbV9nZW5lcmF0b3JfaW5mb6NkbmFtZWpyZWNyYWZ0LmFpZ3ZlcnNpb254KDgxY2U4MmUyYzVjM2NiZmJlOGM2ZmJlMTc5ZDVmOGQ5MWM0MDljZTF3b3JnLmNvbnRlbnRhdXRoLmMycGFfcnNmMC45MC43aXNpZ25hdHVyZXhNc2VsZiNqdW1iZj0vYzJwYS91cm46YzJwYTpmNmQ3MzM5YS1mMTM2LTQxZDItODA2Mi1kMGM5YmJkYzc2ZmQvYzJwYS5zaWduYXR1cmVyY3JlYXRlZF9hc3NlcnRpb25zgqJjdXJseCpzZWxmI2p1bWJmPWMycGEuYXNzZXJ0aW9ucy9jMnBhLmFjdGlvbnMudjJkaGFzaFggQN27MNNVJ2AuSJPjGWPyHvEUXkiHD+9Q21w544qKDmeiY3VybHgpc2VsZiNqdW1iZj1jMnBhLmFzc2VydGlvbnMvYzJwYS5oYXNoLmRhdGFkaGFzaFggwORB4t+gyWGP4yBMUpjbROk/OEzXDvPY+OhHgOjbUDVzZ2F0aGVyZWRfYXNzZXJ0aW9uc4GiY3VybHgtc2VsZiNqdW1iZj1jMnBhLmFzc2VydGlvbnMvYzJwYS5pbmdyZWRpZW50LnYzZGhhc2hYIM3z82HdCPTVFnm7uqxxEO87LzKzDx6LQWJfh0msPbjBaGRjOnRpdGxlbVJlY3JhZnQgSW1hZ2VjYWxnZnNoYTI1NgAAB9xqdW1iAAAAKGp1bWRjMmNzABEAEIAAAKoAOJtxA2MycGEuc2lnbmF0dXJlAAAAB6xjYm9y0oRZA7CiASYYIYJZAecwggHjMIIBiaADAgECAgkAt95aY0NRbnowCgYIKoZIzj0EAwIwQDEfMB0GA1UEAwwWUmVjcmFmdCBTdGFnaW5nIERldiBDQTEQMA4GA1UECgwHUmVjcmFmdDELMAkGA1UEBhMCVVMwHhcNMjYwNjEyMTk0MzUwWhcNMjcwNjEyMTk0MzUwWjA3MQswCQYDVQQGEwJVUzETMBEGA1UEChMKUmVjcmFmdCBBSTETMBEGA1UEAxMKcmVjcmFmdC5haTBZMBMGByqGSM49AgEGCCqGSM49AwEHA0IABEppNVsAKyD8N4bct47Fh0gP9UDoQUbvcTo6Sdv4oiIIUnKBFTPi543bP+3aphvoIhS9LxG+A6KIKV+iqxi3DzWjdTBzMAwGA1UdEwEB/wQCMAAwDgYDVR0PAQH/BAQDAgbAMBMGA1UdJQQMMAoGCCsGAQUFBwMEMB0GA1UdDgQWBBQvMekF6f3pIvXLgg8drwyQyyFd/TAfBgNVHSMEGDAWgBQCCyo4Gsqql0r/+b+TFmjtlHh5tzAKBggqhkjOPQQDAgNIADBFAiBTyEpbRpe++TxJCBUU2RrHr1ib1p7waxPZFlNDD4HnUAIhALQPgGQShEPg3SvZlGQ3LQdlpbdYgLL9BkY33mKUXjLMWQG9MIIBuTCCAV+gAwIBAgIJAJz5aDtPoBNvMAoGCCqGSM49BAMCMEAxHzAdBgNVBAMMFlJlY3JhZnQgU3RhZ2luZyBEZXYgQ0ExEDAOBgNVBAoMB1JlY3JhZnQxCzAJBgNVBAYTAlVTMB4XDTI2MDYxMjE5NDAxNloXDTI4MDYxMTE5NDAxNlowQDEfMB0GA1UEAwwWUmVjcmFmdCBTdGFnaW5nIERldiBDQTEQMA4GA1UECgwHUmVjcmFmdDELMAkGA1UEBhMCVVMwWTATBgcqhkjOPQIBBggqhkjOPQMBBwNCAARD0hAGVxVspoo9itBJ86Ev/TSzvFQMLtGKci4s78jWT33L3KHqhYX2Q/Fo/63HW/U944vfKtWq4nvfQfRkaIPKo0IwQDAPBgNVHRMBAf8EBTADAQH/MA4GA1UdDwEB/wQEAwIBhjAdBgNVHQ4EFgQUAgsqOBrKqpdK//m/kxZo7ZR4ebcwCgYIKoZIzj0EAwIDSAAwRQIgVDA0iYuVgN5CGOAX5mKpNuBy7NKqY4nDdDaVD+G7zcUCIQD07xwub/F+hUuoHiO11u4fOLdYv6nZE34NEaTClizBW6FjcGFkWQOkAAAAAAAAAAAAAAAAAAAAAAAAAAAAAAAAAAAAAAAAAAAAAAAAAAAAAAAAAAAAAAAAAAAAAAAAAAAAAAAAAAAAAAAAAAAAAAAAAAAAAAAAAAAAAAAAAAAAAAAAAAAAAAAAAAAAAAAAAAAAAAAAAAAAAAAAAAAAAAAAAAAAAAAAAAAAAAAAAAAAAAAAAAAAAAAAAAAAAAAAAAAAAAAAAAAAAAAAAAAAAAAAAAAAAAAAAAAAAAAAAAAAAAAAAAAAAAAAAAAAAAAAAAAAAAAAAAAAAAAAAAAAAAAAAAAAAAAAAAAAAAAAAAAAAAAAAAAAAAAAAAAAAAAAAAAAAAAAAAAAAAAAAAAAAAAAAAAAAAAAAAAAAAAAAAAAAAAAAAAAAAAAAAAAAAAAAAAAAAAAAAAAAAAAAAAAAAAAAAAAAAAAAAAAAAAAAAAAAAAAAAAAAAAAAAAAAAAAAAAAAAAAAAAAAAAAAAAAAAAAAAAAAAAAAAAAAAAAAAAAAAAAAAAAAAAAAAAAAAAAAAAAAAAAAAAAAAAAAAAAAAAAAAAAAAAAAAAAAAAAAAAAAAAAAAAAAAAAAAAAAAAAAAAAAAAAAAAAAAAAAAAAAAAAAAAAAAAAAAAAAAAAAAAAAAAAAAAAAAAAAAAAAAAAAAAAAAAAAAAAAAAAAAAAAAAAAAAAAAAAAAAAAAAAAAAAAAAAAAAAAAAAAAAAAAAAAAAAAAAAAAAAAAAAAAAAAAAAAAAAAAAAAAAAAAAAAAAAAAAAAAAAAAAAAAAAAAAAAAAAAAAAAAAAAAAAAAAAAAAAAAAAAAAAAAAAAAAAAAAAAAAAAAAAAAAAAAAAAAAAAAAAAAAAAAAAAAAAAAAAAAAAAAAAAAAAAAAAAAAAAAAAAAAAAAAAAAAAAAAAAAAAAAAAAAAAAAAAAAAAAAAAAAAAAAAAAAAAAAAAAAAAAAAAAAAAAAAAAAAAAAAAAAAAAAAAAAAAAAAAAAAAAAAAAAAAAAAAAAAAAAAAAAAAAAAAAAAAAAAAAAAAAAAAAAAAAAAAAAAAAAAAAAAAAAAAAAAAAAAAAAAAAAAAAAAAAAAAAAAAAAAAAAAAAAAAAAAAAAAAAAAAAAAAAAAAAAAAAAAAAAAAAAAAAAAAAAAAAAAAAAAAAAAAAAAAAAAAAAAAAAAAAAAAAAAAAAAAAAAAAAAAAAAAAAAAAAAAAAAAAAAAAAAAAAAAAAAAAAAAAAAAAAAAAAAAAAAAAAAAAAD2WECKmEQpEensVojE4gRYglX2CnQ06BODutPsIoDchVgSJs+3X1GafEUZ9Le9JlgQxxZjJj3KA71Xfrotve3MUP39</c2pa:manifest>
    </metadata>
    <path fill="#080808"
        d="M692.06 190.053C711.167 187.354 738.366 194.982 754.979 204.546C780.828 219.564 799.765 244.114 807.727 272.931C820.692 273 833.713 272.668 846.669 272.757C854.571 272.812 862.184 274.421 867.772 280.448C875.375 288.648 874.697 297.426 874.494 307.649C899.299 307.254 925.187 304.691 909.553 339.725C897.508 367.295 886.22 395.644 873.702 422.953C868.033 435.319 855.674 442.018 842.56 442.144C825.621 442.307 808.485 442.296 791.538 442.297L668.07 442.33C680.121 436.045 685.957 431.916 695.558 422.235L783.782 422.279C796.922 422.281 840.269 424.175 850.511 420.284C853.049 419.319 854.523 416.594 855.808 414.363C859.461 408.015 862.04 400.745 864.896 393.996C869.696 382.565 874.563 371.163 879.497 359.789C883.926 348.93 888.549 338.152 893.362 327.458C876.139 327.49 737.668 326.029 732.021 328.518C725.396 331.439 722.511 340.031 719.934 346.164C709.441 371.138 701.014 396.385 680.557 415.275C650.574 442.961 616.393 443.789 577.847 442.13C554.396 441.119 532.338 430.712 516.646 413.253C500.661 396.019 492.327 373.051 493.541 349.576C494.634 326.05 505.162 303.957 522.744 288.29C543.46 269.754 565.27 265.358 592.055 266.833C609.472 222.363 643.538 193.699 692.06 190.053Z" />
    <path fill="#080808"
        d="M554.924 489.85C579.722 486.776 602.29 504.46 605.239 529.275C608.188 554.091 590.392 576.571 565.564 579.394C540.912 582.198 518.629 564.555 515.701 539.916C512.773 515.277 530.302 492.902 554.924 489.85Z" />
    <path fill="#080808"
        d="M722.282 491.385C743.122 491.262 774.31 487.392 790.446 502.246C808.851 519.189 808.832 546.708 792.326 565.271C773.716 582.005 747.091 577.783 722.439 577.604C722.547 548.864 722.495 520.124 722.282 491.385Z" />
    <path fill="#080808"
        d="M905.533 491.48C925.273 491.281 961.829 486.456 971.291 507.02C979.465 524.783 971.371 540.158 954.847 548.025L976.106 577.659L965.832 577.599C963.148 576.664 948.176 553.64 945.37 549.529C936.466 550.29 924.805 549.908 915.722 549.845L915.714 577.598L905.667 577.632L905.533 491.48Z" />
    <path fill="#080808"
        d="M823.523 491.414L861.34 491.328C868.076 491.334 877.228 491.09 883.628 491.765C884.611 493.883 884.261 497.373 884.207 499.86L833.788 499.829L833.823 529.297L878.52 529.352C878.591 532.235 878.742 533.829 878.066 536.65C875.186 538.305 841.588 537.595 835.828 537.575L834.313 537.984C833.271 541.085 833.692 564.644 833.706 569.35L886.18 569.315C886.233 571.611 886.522 575.621 885.441 577.336C868.744 578.525 841.093 577.657 823.586 577.643L823.523 491.414Z" />
    <path fill="#080808"
        d="M686.69 491.326L696.505 491.299L696.505 500.496C696.568 519.533 700.402 554.762 687.362 569.139C675.254 582.488 647.413 581.559 634.609 568.783C631.24 565.434 628.746 561.306 627.35 556.765C623.583 544.494 624.874 506.585 624.877 491.48L635.041 491.435C634.995 492.179 634.962 492.925 634.943 493.671C634.646 505.662 634.75 517.711 634.674 529.707C634.6 541.193 634.159 554.184 642.679 563.095C651.556 572.38 670.67 572.343 679.579 563.122C688.655 553.727 686.654 538.986 686.854 527.039C686.874 515.169 686.756 503.21 686.69 491.326Z" />
    <path fill="#080808"
        d="M1020.29 490.5C1030.27 489.602 1041.33 492.844 1049.71 498.227L1046.21 506.282C1035.47 499.097 1016.8 495.412 1005.22 503.951C1003.33 505.347 998.94 511.941 999.577 514.319C1004.76 533.641 1037.62 527.054 1049.11 541.819C1052.7 545.987 1054.16 550.243 1053.63 555.877C1051.72 576.177 1031.91 579.673 1015.67 578.461C1004.38 577.339 996.906 574.253 988.314 566.956L992.249 559.088C992.627 559.418 993.01 559.744 993.397 560.065C1003.62 568.532 1013.39 570.679 1026.21 570.015C1034.91 569.564 1045.51 563.216 1043.45 553.502C1039.85 536.479 1008.19 540.487 997.07 529.126C993.582 525.561 990.69 523.208 990.373 517.686C990.07 498.062 1004.27 491.973 1020.29 490.5Z" />
    <path fill="#080808"
        d="M395.753 490.446C396.474 490.389 397.196 490.346 397.919 490.316C411.524 489.779 422.354 493.932 432.276 503.16L425.682 509.85C423.715 508.068 421.626 506.175 419.406 504.722C403.848 494.538 380.676 498.721 370.461 514.477C365.101 522.864 363.377 533.068 365.685 542.751C370.694 564.286 390.602 573.631 411.222 568.43C418.441 565.649 420.205 564.31 425.864 559.025L432.544 565.508C430.772 567.079 428.929 568.718 427.071 570.179C411.871 582.136 387.375 581.364 372.077 569.949C362.711 562.959 356.592 552.458 355.128 540.862C351.478 513.637 369.213 493.819 395.753 490.446Z" />
    <path fill="#080808"
        d="M450.808 491.516L460.857 491.448C460.337 516.992 460.707 543.665 460.698 569.294C467.346 569.395 504.59 568.809 508.454 569.739C509.345 571.984 509.057 575.073 509.015 577.582L450.908 577.571L450.808 491.516Z" />
</svg>